<svg xmlns="http://www.w3.org/2000/svg" version="1.1" viewBox="-5.0 -10.0 110.0 135.0">
    <path d="m17.402 33.648v10.289h9.8516v4.9453h-9.8516v30.57h-4.9453v-45.805zm0 45.805h60.715v-30.57h-4.9062v-4.9453h4.9062v-10.289h-60.715v-4.9453h13.777v-8.3125h4.9453v8.3125h30.832v-8.3125h4.9453v8.3125h11.164v4.9453h4.9453v45.805h-4.9453v4.9453h-65.66v-4.9453zm49.551-59.062h-30.832v-4.9453h30.832zm-39.699 28.492h9.8516v4.9453h-9.8516zm9.8516 4.9453h9.8516v4.9453h-9.8516zm9.8516 4.9453h6.5547v6.5547h-6.5547zm16.402-4.9453v4.9453h-9.8516v-4.9453zm9.8516-4.9453v4.9453h-9.8516v-4.9453zm-19.703 4.9453h-6.5547v-6.5547h6.5547z"
          fill-rule="evenodd"/>
</svg>