<svg xmlns="http://www.w3.org/2000/svg" viewBox="0 0 100 125" x="0px" y="0px">
    <rect x="89.18" y="31.13" width="2.9" height="2.9"/>
    <polygon
            points="28.23 34.04 28.23 31.13 89.18 31.13 89.18 28.24 28.23 28.24 28.23 22.43 25.33 22.43 25.33 36.93 28.23 36.93 28.23 51.45 31.13 51.45 31.13 36.93 80.47 36.93 80.47 48.55 83.37 48.55 83.37 36.93 89.18 36.93 89.18 34.04 28.23 34.04"/>
    <rect x="80.47" y="68.86" width="2.9" height="2.9"/>
    <rect x="77.57" y="48.55" width="2.9" height="14.51"/>
    <path d="m74.67,65.96h-40.63v2.9h5.8v2.9h-8.71v-5.8h-2.9v8.7h8.71v5.81h2.9v-5.81h2.9v-2.9h5.81v2.9h2.9v5.81h2.9v-5.81h5.81v5.81h2.9v-5.81h2.9v-2.9h5.8v2.9h2.91v5.81h2.9v-5.81h2.9v-2.9h-5.8v-2.9h5.8v-2.9h-2.9v-2.91h-2.9v2.91Zm-23.22,5.8v-2.9h11.61v2.9h-11.61Z"/>
    <polygon
            points="71.76 83.37 65.96 83.37 65.96 80.48 63.06 80.48 63.06 86.27 74.67 86.27 74.67 80.48 71.76 80.48 71.76 83.37"/>
    <rect x="65.96" y="42.74" width="2.9" height="14.51"/>
    <rect x="54.35" y="42.74" width="2.9" height="14.51"/>
    <polygon
            points="48.55 83.37 42.74 83.37 42.74 80.48 39.84 80.48 39.84 86.27 51.45 86.27 51.45 80.48 48.55 80.48 48.55 83.37"/>
    <rect x="42.74" y="42.74" width="2.9" height="14.51"/>
    <rect x="31.13" y="51.45" width="2.91" height="14.51"/>
    <rect x="25.33" y="51.45" width="2.9" height="14.51"/>
    <rect x="22.43" y="36.93" width="2.9" height="14.52"/>
    <rect x="22.43" y="16.62" width="2.9" height="5.8"/>
    <rect x="19.52" y="25.33" width="2.91" height="11.6"/>
    <polygon
            points="19.52 19.52 10.82 19.52 10.82 16.62 22.43 16.62 22.43 13.73 7.92 13.73 7.92 22.43 16.62 22.43 16.62 25.33 19.52 25.33 19.52 19.52"/>
</svg>