<svg xmlns="http://www.w3.org/2000/svg" version="1.1" viewBox="-5.0 -10.0 110.0 135.0">
    <path d="m73.82 36.77v-5.2891h-5.2891v-5.2891h-5.2891v-5.2891h-26.469v5.2891h-5.2891v5.2891h-5.2891v5.2891h-5.2891v26.469h5.2891v5.2891h5.2891v5.2891h5.2891v5.2891h26.469v-5.2891h5.2891v-5.2891h5.2891v-5.2891h5.2891v-26.469zm-15.879 5.2891h-10.59v5.2891h10.59v15.879h-5.2891v5.2891h-5.2891v-5.2891h-5.2891v-5.2891h10.59v-5.2891h-10.59v-15.879h5.2891v-5.2891h5.2891v5.2891h5.2891zm31.77-5.2891v-10.59h-5.2891v-5.2891h-5.2891v-5.2891h-5.2891v-5.2891h-10.59v-5.2891h-26.469v5.2891h-10.59v5.2891h-5.2891v5.2891h-5.2891v5.2891h-5.2891v10.59h-5.2891v26.469h5.2891v10.59h5.2891v5.2891h5.2891v5.2891h5.2891v5.2891h10.59v5.2891h26.469v-5.2891h10.59v-5.2891h5.2891v-5.2891h5.2891v-5.2891h5.2891v-10.59h5.2891v-26.469zm-5.3008 26.461h-5.2891v5.2891h-5.2891v5.2891h-5.2891v5.2891h-5.2891v5.2891h-26.469v-5.2891h-5.2891v-5.2891h-5.2891v-5.2891h-5.2891v-5.2891h-5.2891v-26.469h5.2891v-5.2891h5.2891v-5.2891h5.2891v-5.2891h5.2891v-5.2891h26.469v5.2891h5.2891v5.2891h5.2891v5.2891h5.2891v5.2891h5.2891z"/>
</svg>