<svg xmlns="http://www.w3.org/2000/svg" viewBox="0 0 512 640" x="0px" y="0px">
    <title>cat, kitten, pet, animal, pixel, digital, sign, art, nft</title>
    <g>
        <polygon points="112 64 112 40 88 40 64 40 64 64 88 64 112 64"/>
        <rect x="16" y="88" width="24" height="96"/>
        <rect x="136" y="88" width="24" height="24"/>
        <rect x="160" y="112" width="192" height="24"/>
        <rect x="136" y="136" width="24" height="24"/>
        <rect x="40" y="184" width="72" height="24"/>
        <rect x="112" y="160" width="24" height="24"/>
        <rect x="16" y="208" width="24" height="168"/>
        <rect x="64" y="400" width="24" height="24"/>
        <rect x="88" y="424" width="24" height="24"/>
        <rect x="136" y="264" width="24" height="24"/>
        <rect x="184" y="376" width="48" height="24"/>
        <rect x="40" y="64" width="24" height="24"/>
        <rect x="112" y="64" width="24" height="24"/>
        <rect x="160" y="328" width="24" height="48"/>
        <rect x="40" y="376" width="24" height="24"/>
        <rect x="64" y="256" width="24" height="24"/>
        <rect x="88" y="280" width="24" height="24"/>
        <rect x="64" y="328" width="48" height="24"/>
        <rect x="472" y="88" width="24" height="96"/>
        <polygon points="448 64 448 40 424 40 400 40 400 64 424 64 448 64"/>
        <rect x="352" y="88" width="24" height="24"/>
        <rect x="352" y="136" width="24" height="24"/>
        <rect x="400" y="184" width="72" height="24"/>
        <rect x="376" y="160" width="24" height="24"/>
        <rect x="424" y="400" width="24" height="24"/>
        <rect x="400" y="424" width="24" height="24"/>
        <rect x="112" y="448" width="288" height="24"/>
        <rect x="352" y="264" width="24" height="24"/>
        <rect x="280" y="376" width="48" height="24"/>
        <rect x="232" y="352" width="48" height="24"/>
        <rect x="448" y="64" width="24" height="24"/>
        <rect x="376" y="64" width="24" height="24"/>
        <rect x="328" y="328" width="24" height="48"/>
        <rect x="448" y="376" width="24" height="24"/>
        <rect x="472" y="208" width="24" height="168"/>
        <rect x="424" y="256" width="24" height="24"/>
        <rect x="400" y="280" width="24" height="24"/>
        <rect x="400" y="328" width="48" height="24"/>
        <rect x="208" y="160" width="96" height="24"/>
        <rect x="208" y="208" width="96" height="24"/>
    </g>
</svg>