<svg xmlns="http://www.w3.org/2000/svg" viewBox="0 0 32 40" x="0px" y="0px"><title>minecraft - glyph</title><g data-name="golden sword"><rect x="4.36" y="26.175" width="1.46" height="1.46"/><rect x="4.36" y="24.725" width="1.46" height="1.45"/><rect x="4.36" y="23.265" width="1.46" height="1.46"/><rect x="5.82" y="23.265" width="1.45" height="1.46"/><rect x="5.82" y="26.175" width="1.45" height="1.46"/><rect x="7.27" y="26.175" width="1.46" height="1.46"/><rect x="7.27" y="24.725" width="1.46" height="1.45"/><rect x="26.18" y="7.265" width="1.46" height="1.46"/><rect x="26.18" y="5.815" width="1.46" height="1.45"/><rect x="26.18" y="4.365" width="1.46" height="1.45"/><rect x="24.73" y="8.725" width="1.45" height="1.45"/><rect x="24.73" y="4.365" width="1.45" height="1.45"/><rect x="23.27" y="10.175" width="1.46" height="1.46"/><rect x="23.27" y="4.365" width="1.46" height="1.45"/><rect x="21.82" y="11.635" width="1.45" height="1.45"/><rect x="21.82" y="5.815" width="1.45" height="1.45"/><rect x="20.36" y="13.085" width="1.46" height="1.46"/><rect x="20.36" y="7.265" width="1.46" height="1.46"/><rect x="18.91" y="14.545" width="1.45" height="1.45"/><rect x="18.91" y="8.725" width="1.45" height="1.45"/><rect x="17.45" y="23.265" width="1.46" height="1.46"/><rect x="17.45" y="21.815" width="1.46" height="1.45"/><rect x="17.45" y="15.995" width="1.46" height="1.46"/><rect x="17.45" y="10.175" width="1.46" height="1.46"/><rect x="16" y="23.265" width="1.45" height="1.46"/><rect x="16" y="20.365" width="1.45" height="1.45"/><rect x="16" y="17.455" width="1.45" height="1.45"/><rect x="16" y="11.635" width="1.45" height="1.45"/><rect x="14.55" y="21.815" width="1.45" height="1.45"/><rect x="14.55" y="18.905" width="1.45" height="1.46"/><rect x="14.55" y="13.085" width="1.45" height="1.46"/><rect x="13.09" y="21.815" width="1.46" height="1.45"/><rect x="13.09" y="18.905" width="1.46" height="1.46"/><rect x="13.09" y="14.545" width="1.46" height="1.45"/><rect x="11.64" y="20.365" width="1.45" height="1.45"/><rect x="11.64" y="17.455" width="1.45" height="1.45"/><rect x="11.64" y="15.995" width="1.45" height="1.46"/><rect x="10.18" y="21.815" width="1.46" height="1.45"/><rect x="10.18" y="18.905" width="1.46" height="1.46"/><rect x="10.18" y="14.545" width="1.46" height="1.45"/><rect x="8.73" y="23.265" width="1.45" height="1.46"/><rect x="8.73" y="20.365" width="1.45" height="1.45"/><rect x="8.73" y="17.455" width="1.45" height="1.45"/><rect x="8.73" y="15.995" width="1.45" height="1.46"/><rect x="8.73" y="13.085" width="1.45" height="1.46"/><rect x="7.27" y="21.815" width="1.46" height="1.45"/><rect x="7.27" y="14.545" width="1.46" height="1.45"/><rect x="7.27" y="13.085" width="1.46" height="1.46"/></g><text x="0" y="47" fill="#000000" font-size="5px" font-weight="bold" font-family="'Helvetica Neue', Helvetica, Arial-Unicode, Arial, Sans-serif">Created by Yafet bouchagra</text><text x="0" y="52" fill="#000000" font-size="5px" font-weight="bold" font-family="'Helvetica Neue', Helvetica, Arial-Unicode, Arial, Sans-serif">from the Noun Project</text></svg>