<svg xmlns="http://www.w3.org/2000/svg" version="1.1" viewBox="-5.0 -10.0 110.0 135.0">
    <g>
        <path d="m84.41 26.18h5.2891v5.2891h-5.2891z"/>
        <path d="m26.18 5h47.648v5.2891h-47.648z"/>
        <path d="m31.469 63.23h-21.18v-37.051h5.3008v15.879h5.2891v-15.879h-5.2891v-5.3008h5.2891v-10.59h5.3008v31.77h5.2891v-15.879h5.3008v15.879h26.461v-15.879h5.3008v15.879h5.2891v-31.77h5.3008v10.59h5.2891v5.3008h-5.2891v15.879h5.2891v-5.2891h5.3008v-5.3008h5.2891v52.941h-5.2891v5.3008h-5.3008v5.2891h-68.82v-5.2891h-5.3008v-15.891h21.18z"/>
        <path d="m5 63.23h5.2891v10.59h-5.2891z"/>
        <path d="m31.469 15.59h5.2891v5.2891h-5.2891z"/>
        <path d="m57.941 20.879h5.2891v5.2891h-5.2891z"/>
        <path d="m42.059 15.59h15.879v5.2891h-15.879z"/>
        <path d="m36.77 20.879h5.2891v5.2891h-5.2891z"/>
        <path d="m63.23 15.59h5.2891v5.2891h-5.2891z"/>
        <path d="m51.57 37.32h3.4297v-6.8398h3.4219v3.418h3.418v3.4219h-3.418v3.418h-10.273v-6.8398h-3.418v6.8398h-3.4219v-3.418h-3.418v-3.4219h3.418v-3.418h10.262z"/>
    </g>
</svg>